<svg xmlns="http://www.w3.org/2000/svg" viewBox="0 0 280 80" fill="#2E2A27">
  <!-- C -->
  <path d="M28 16c-15 0-24 10-24 24s9 24 24 24c8 0 15-4 19-10l-6-4c-3 4-7 7-13 7-10 0-16-7-16-17s6-17 16-17c6 0 10 3 13 7l6-4C43 20 36 16 28 16z"/>
  <!-- h -->
  <path d="M56 12h8v22c3-4 8-6 13-6 9 0 14 6 14 15v21h-8V44c0-6-3-9-8-9s-11 4-11 10v19h-8V12z"/>
  <!-- i (with heart) -->
  <path d="M100 30h8v34h-8z"/>
  <path d="M104 16c2.5-2.5 6.5-2.5 9 0s2.5 6.5 0 9c-1.5 1.5-3 3-4.5 4.5-1.5-1.5-3-3-4.5-4.5-2.5-2.5-2.5-6.5 0-9z"/>
  <!-- l -->
  <path d="M116 12h8v52h-8z"/>
  <!-- l -->
  <path d="M132 12h8v52h-8z"/>
  <!-- F -->
  <path d="M152 16h28v7h-20v10h18v7h-18v24h-8z"/>
  <!-- i -->
  <path d="M188 16c0-3 2-5 5-5s5 2 5 5-2 5-5 5-5-2-5-5z"/>
  <path d="M189 30h8v34h-8z"/>
  <!-- t -->
  <path d="M210 20h8v10h10v7h-10v16c0 4 1 6 5 6 2 0 3-1 5-2v7c-2 1-5 2-8 2-7 0-10-4-10-13V37h-6v-7h6V20z"/>
</svg>
