<?xml version="1.0" encoding="utf-8"?>
<!-- Generator: Adobe Illustrator 24.1.2, SVG Export Plug-In . SVG Version: 6.00 Build 0)  -->
<svg version="1.1" id="Layer_1" xmlns="http://www.w3.org/2000/svg" xmlns:xlink="http://www.w3.org/1999/xlink" x="0px" y="0px"
	 viewBox="0 0 120 119.1" style="enable-background:new 0 0 120 119.1;" xml:space="preserve">
<style type="text/css">
	.st0{fill:#FFFFFF;}
</style>
<path class="st0" d="M-120.6,59.5l1.5,0.8c-1.5,2.4-4.1,3.9-7,3.9c-4.8-0.2-8.5-4.2-8.4-8.9c0.2-4.5,3.8-8.2,8.4-8.4
	c2.8,0,5.5,1.4,7,3.9l-1.5,0.8c-1.2-1.8-3.3-2.9-5.5-2.9c-3.8,0.2-6.8,3.5-6.5,7.3c0.2,3.5,3,6.4,6.5,6.5
	C-123.9,62.5-121.8,61.3-120.6,59.5z"/>
<path class="st0" d="M-107.7,57.7v6.4h-1.7v-6.4c0-2.5-1.1-3.7-3-3.7s-3.1,1.2-3.1,3.8v6.3h-1.8V47h1.8v6.6c0.8-1,2.1-1.6,3.4-1.5
	C-109.8,52.2-107.7,53.3-107.7,57.7z"/>
<rect x="-105.5" y="55.5" class="st0" width="1.8" height="7.2"/>
<path class="st0" d="M-82.5,50.2v1.7h-11.1v-1.7H-82.5z M-84.2,55.8v1.8H-92v6.6h-1.8v-8.3L-84.2,55.8z"/>
<path class="st0" d="M-81.1,49.2c0-0.6,0.4-1,1-1s1,0.4,1,1s-0.4,1-1,1S-81.1,49.8-81.1,49.2z"/>
<rect x="-81" y="52.5" class="st0" width="1.8" height="11.7"/>
<path class="st0" d="M-70.4,63.2c-0.8,0.6-1.7,0.9-2.7,0.9c-1.5-0.2-2.5-1.1-2.5-3.8v-6.3h-1.8v-1.8h1.8v-2.6l1.8-0.5v3.1h2.4V54
	h-2.4v6.2c0,1,0.1,1.5,0.5,1.9c0.7,0.4,1.5,0.3,2.1-0.2L-70.4,63.2z"/>
<polygon class="st0" points="-99.8,62 -101.6,62 -101.6,62 -101.6,52 -99.8,52 "/>
<polygon class="st0" points="-95.8,62 -97.6,62 -97.6,62 -97.6,47.2 -95.8,47.2 "/>
<path class="st0" d="M-104.6,49l-0.1-0.1c-0.1-0.1-0.1-0.2-0.2-0.3c-0.1-0.1-0.2-0.2-0.4-0.3c-0.2-0.1-0.4-0.1-0.5-0.1
	c-0.2,0-0.4,0-0.6,0.1c-0.2,0.1-0.3,0.2-0.4,0.3c-0.1,0.2-0.2,0.3-0.3,0.5c-0.1,0.2-0.1,0.4-0.1,0.6c0,0.4,0.2,0.7,0.4,1
	c0.3,0.3,0.6,0.7,0.9,1c0.3,0.3,0.6,0.5,0.9,0.7l0.4,0.3l0.4-0.3c0.3-0.2,0.6-0.5,0.9-0.7c0.3-0.3,0.6-0.6,0.9-1
	c0.3-0.3,0.4-0.6,0.4-1c0-0.2,0-0.4-0.1-0.6c-0.1-0.2-0.1-0.4-0.3-0.5c-0.1-0.1-0.3-0.3-0.4-0.3c-0.2-0.1-0.4-0.1-0.6-0.1
	s-0.4,0-0.6,0.1c-0.1,0.1-0.3,0.2-0.4,0.3c-0.1,0.1-0.1,0.2-0.2,0.3L-104.6,49z"/>
</svg>
